<svg width="96" height="96" viewBox="0 0 96 96" fill="none" xmlns="http://www.w3.org/2000/svg">
<rect opacity="0.2" width="96" height="96" rx="48" fill="white"/>
<path opacity="0.5" fill-rule="evenodd" clip-rule="evenodd" d="M64.0005 64H57.6004V52.8014C57.6004 49.7294 56.2452 48.0158 53.8148 48.0158C51.1699 48.0158 49.6003 49.8014 49.6003 52.8014V64H43.2003V43.1997H49.6003V45.539C49.6003 45.539 51.6083 42.0157 56.1332 42.0157C60.6596 42.0157 64.0005 44.7774 64.0005 50.4926C64.0005 56.2063 64.0005 64 64.0005 64ZM35.9072 39.8737C33.7488 39.8737 32 38.1105 32 35.936C32 33.7632 33.7488 32 35.9072 32C38.0641 32 39.8129 33.7632 39.8129 35.936C39.8145 38.1105 38.0641 39.8737 35.9072 39.8737ZM32 63.9998H40.0001V43.1996H32V63.9998Z" fill="white"/>
</svg>
