<svg width="96" height="96" viewBox="0 0 96 96" fill="none" xmlns="http://www.w3.org/2000/svg">
<rect opacity="0.2" width="96" height="96" rx="48" fill="white"/>
<path opacity="0.5" fill-rule="evenodd" clip-rule="evenodd" d="M41.3914 32.1964C38.7868 32.3139 36.5293 32.9507 34.7064 34.7659C32.8771 36.5907 32.2482 38.8569 32.1304 41.4345C32.0572 43.0432 31.6289 55.1971 32.8707 58.3844C33.7082 60.5348 35.3575 62.188 37.5275 63.0281C38.5401 63.422 39.6959 63.6888 41.3914 63.7666C55.5687 64.4082 60.8241 64.0588 63.0403 58.3844C63.4335 57.3744 63.7042 56.2198 63.779 54.5285C64.427 40.3148 63.6739 37.2339 61.2031 34.7659C59.2432 32.811 56.9379 31.4801 41.3914 32.1964ZM41.5217 60.9092C39.9695 60.8394 39.1273 60.5805 38.5653 60.3629C37.1515 59.8134 36.0896 58.7557 35.5435 57.3503C34.5978 54.9284 34.9115 43.4256 34.9959 41.5644C35.0786 39.7412 35.448 38.0753 36.7344 36.7889C38.3265 35.2008 40.3834 34.4226 54.3888 35.0547C56.2164 35.1372 57.8865 35.5057 59.1761 36.7889C60.7682 38.377 61.5578 40.4495 60.9146 54.4011C60.8446 55.9495 60.5851 56.7897 60.367 57.3503C58.9261 61.0426 55.6115 61.5556 41.5217 60.9092ZM54.5437 39.5047C54.5437 40.556 55.3987 41.4104 56.4542 41.4104C57.5098 41.4104 58.3663 40.556 58.3663 39.5047C58.3663 38.4534 57.5098 37.599 56.4542 37.599C55.3987 37.599 54.5437 38.4534 54.5437 39.5047ZM39.7802 47.9805C39.7802 52.4844 43.4404 56.1355 47.9554 56.1355C52.4705 56.1355 56.1307 52.4844 56.1307 47.9805C56.1307 43.4766 52.4705 39.8271 47.9554 39.8271C43.4404 39.8271 39.7802 43.4766 39.7802 47.9805ZM42.649 47.9807C42.649 45.0586 45.0243 42.6875 47.9553 42.6875C50.8863 42.6875 53.2616 45.0586 53.2616 47.9807C53.2616 50.9044 50.8863 53.2755 47.9553 53.2755C45.0243 53.2755 42.649 50.9044 42.649 47.9807Z" fill="white"/>
</svg>
