<svg width="96" height="96" viewBox="0 0 96 96" fill="none" xmlns="http://www.w3.org/2000/svg">
<rect opacity="0.2" width="96" height="96" rx="48" fill="white"/>
<path opacity="0.5" fill-rule="evenodd" clip-rule="evenodd" d="M42.064 60C54.1392 60 60.744 50.7655 60.744 42.7582C60.744 42.4953 60.744 42.2339 60.7248 41.974C62.0096 41.1175 63.1184 40.0541 64 38.8372C62.8032 39.3276 61.5312 39.6495 60.2304 39.7913C61.6 39.0337 62.6256 37.8434 63.1168 36.4389C61.8272 37.1448 60.4176 37.6425 58.9472 37.9098C56.4608 35.4701 52.3024 35.352 49.6576 37.6469C47.9536 39.1267 47.2288 41.3331 47.7584 43.4375C42.48 43.1924 37.5616 40.8915 34.2272 37.1064C32.4848 39.8755 33.376 43.4169 36.2608 45.1949C35.216 45.1669 34.1936 44.907 33.28 44.4373V44.5141C33.2816 47.3983 35.4848 49.8823 38.5472 50.4539C37.5808 50.6975 36.5664 50.733 35.584 50.5572C36.4432 53.0265 38.9088 54.7174 41.7168 54.7662C39.392 56.4527 36.52 57.3683 33.5632 57.3654C33.0416 57.3639 32.52 57.3358 32 57.2782C35.0032 59.0563 38.496 60 42.064 59.9956" fill="white"/>
</svg>
