<svg width="96" height="96" viewBox="0 0 96 96" fill="none" xmlns="http://www.w3.org/2000/svg">
<circle opacity="0.2" cx="48" cy="48" r="48" fill="#ECECEC"/>
<path fill-rule="evenodd" clip-rule="evenodd" d="M34.1706 32.0393L36.957 38.7936H30.5586L34.1706 32.0393ZM56.6012 43.738H63.7844L50.6348 58.1959L56.6012 43.738ZM44.9779 58.2305L31.4395 43.738H38.9971L44.9779 58.2305ZM42.1616 38.7935L39.1016 31.3767H56.4944L53.4344 38.7935H42.1616ZM51.3959 43.7378L47.8007 52.4526L44.2031 43.7378H51.3959ZM65.425 38.7933H58.6426L61.4674 31.9451L65.425 38.7933ZM71.4896 39.4464L64.64 27.0429C64.3616 26.6078 63.9872 26.4001 63.5576 26.4001C63.104 26.4001 62.5856 26.4323 62.048 26.4323H34.052C33.5216 26.4323 33.0104 26.4125 32.5616 26.4125C32.1056 26.4125 31.712 26.5757 31.4264 27.0429L24.476 40.2053C23.7416 41.4093 23.8664 42.8012 24.7856 43.8618L45.6512 66.1321C46.2656 66.8441 47.1128 67.2001 47.96 67.2001C48.8216 67.2001 49.6832 66.8367 50.3024 66.1049L71.2352 43.2364C72.152 42.1535 72.2552 40.6429 71.4896 39.4464V39.4464Z" fill="white"/>
</svg>
