<svg width="96" height="96" viewBox="0 0 96 96" fill="none" xmlns="http://www.w3.org/2000/svg">
<circle opacity="0.2" cx="48" cy="48" r="48" fill="#ECECEC"/>
<path fill-rule="evenodd" clip-rule="evenodd" d="M48 24C61.2552 24 72 35.016 72 48.6072C72 59.4768 65.1312 68.6976 55.6008 71.9544C54.384 72.1968 53.952 71.4288 53.952 70.7736C53.952 69.9624 53.9808 67.3128 53.9808 64.02C53.9808 61.7256 53.2128 60.228 52.3512 59.4648C57.696 58.8552 63.312 56.7744 63.312 47.3232C63.312 44.6352 62.3808 42.4416 60.84 40.7184C61.0896 40.0968 61.9128 37.5936 60.6048 34.2048C60.6048 34.2048 58.5936 33.5448 54.012 36.7272C52.0944 36.1824 50.04 35.9088 48 35.8992C45.96 35.9088 43.908 36.1824 41.9928 36.7272C37.4064 33.5448 35.3904 34.2048 35.3904 34.2048C34.0872 37.5936 34.9104 40.0968 35.1576 40.7184C33.624 42.4416 32.6856 44.6352 32.6856 47.3232C32.6856 56.7504 38.2896 58.8624 43.62 59.484C42.9336 60.0984 42.312 61.1832 42.096 62.7744C40.728 63.4032 37.2528 64.4904 35.112 60.7296C35.112 60.7296 33.8424 58.3656 31.4328 58.1928C31.4328 58.1928 29.0928 58.1616 31.2696 59.688C31.2696 59.688 32.8416 60.444 33.9336 63.288C33.9336 63.288 35.3424 67.68 42.0192 66.192C42.0312 68.2488 42.0528 70.188 42.0528 70.7736C42.0528 71.424 41.6112 72.1848 40.4136 71.9568C30.876 68.7048 24 59.4792 24 48.6072C24 35.016 34.7472 24 48 24" fill="white"/>
</svg>
