<svg width="96" height="96" viewBox="0 0 96 96" fill="none" xmlns="http://www.w3.org/2000/svg">
<circle opacity="0.2" cx="48" cy="48" r="48" fill="#ECECEC"/>
<path fill-rule="evenodd" clip-rule="evenodd" d="M60.7875 68.2371C56.5995 68.2371 53.8923 66.2403 52.5723 63.6291V63.6291L56.2443 61.5027C57.2115 63.0819 58.4667 64.2411 60.6915 64.2411C62.5587 64.2411 63.7515 63.3075 63.7515 62.0187C63.7515 60.0795 61.1643 59.3211 59.3379 58.5387C56.0835 57.1539 53.9235 55.4139 53.9235 51.7395C53.9235 48.3579 56.5011 45.7803 60.5307 45.7803C63.3963 45.7803 65.4603 46.7787 66.9411 49.3875L63.4299 51.6435C62.6571 50.2587 61.8195 49.7115 60.5307 49.7115C59.2083 49.7115 58.3707 50.5491 58.3707 51.6435C58.3707 52.9971 59.2083 53.5443 61.1427 54.3819C65.1963 56.1195 68.2635 57.4851 68.2635 61.9539C68.2635 66.0147 65.0739 68.2371 60.7875 68.2371V68.2371ZM50.4001 61.4372C50.4001 66.11 47.5225 68.5796 43.5265 68.5796C39.9169 68.5796 37.7545 67.1996 36.6913 64.7996H36.6553H36.6385H36.6289L40.2985 62.234C41.0065 63.4892 41.6449 64.3796 43.1905 64.3796C44.6737 64.3796 45.6001 63.6284 45.6001 61.3748V45.5996H50.4001V61.4372ZM24 72H72V24H24V72Z" fill="white"/>
</svg>
