<svg width="61" height="22" viewBox="0 0 61 22" fill="none" xmlns="http://www.w3.org/2000/svg">
<g clip-path="url(#clip0_1401_777)">
<path d="M19.4579 20.3078V6.94534L14.1256 20.3078H10.4361L5.1038 7.11593V20.3078H0.780273V0.150391H6.71792L12.3385 13.7687L17.6709 0.150391H23.9256V20.3078H19.4579Z" fill="white"/>
</g>
<g clip-path="url(#clip1_1401_777)">
<path d="M37.8229 18.516C37.8229 19.0082 37.8301 19.4281 37.8445 19.7756C37.8733 20.1087 37.8949 20.333 37.9094 20.4489H34.7532C34.7388 20.3764 34.7172 20.239 34.6883 20.0362C34.6739 19.8335 34.6667 19.6236 34.6667 19.4064C34.4217 19.7829 34.0398 20.0941 33.521 20.3403C33.0166 20.5719 32.4401 20.6878 31.7916 20.6878C31.0278 20.6878 30.3216 20.5502 29.673 20.2751C29.0245 19.9855 28.4624 19.5946 27.9869 19.1024C27.5113 18.5956 27.1366 17.9948 26.8628 17.2998C26.6033 16.6048 26.4736 15.8447 26.4736 15.0194C26.4736 14.2231 26.6033 13.4847 26.8628 12.8042C27.1222 12.1092 27.4825 11.5083 27.9436 11.0016C28.4048 10.4948 28.9525 10.1039 29.5866 9.82882C30.2207 9.53924 30.9197 9.39446 31.6835 9.39446C32.1447 9.39446 32.541 9.43789 32.8724 9.52476C33.2039 9.59716 33.485 9.69126 33.7155 9.8071C33.9461 9.90844 34.1263 10.0243 34.256 10.1546C34.4001 10.2849 34.5082 10.4007 34.5802 10.5021V4.7251H37.8229V18.516ZM29.7811 15.0411C29.7811 15.49 29.846 15.8809 29.9757 16.2139C30.1054 16.5469 30.2783 16.8292 30.4945 17.0609C30.7251 17.2781 30.9845 17.4446 31.2727 17.5604C31.5754 17.6762 31.8852 17.7341 32.2023 17.7341C32.5194 17.7341 32.822 17.6762 33.1102 17.5604C33.4129 17.4446 33.6723 17.2781 33.8885 17.0609C34.1191 16.8292 34.2992 16.5469 34.4289 16.2139C34.5586 15.8809 34.6235 15.49 34.6235 15.0411C34.6235 14.5923 34.5586 14.2014 34.4289 13.8684C34.2992 13.5353 34.1191 13.2603 33.8885 13.0431C33.6723 12.8114 33.4129 12.6449 33.1102 12.5436C32.822 12.4277 32.5194 12.3698 32.2023 12.3698C31.8852 12.3698 31.5754 12.4277 31.2727 12.5436C30.9845 12.6449 30.7251 12.8114 30.4945 13.0431C30.2783 13.2603 30.1054 13.5353 29.9757 13.8684C29.846 14.2014 29.7811 14.5923 29.7811 15.0411Z" fill="#FF8944"/>
</g>
<g clip-path="url(#clip2_1401_777)">
<path d="M38.9756 20.3078V0.150391H51.6532V4.38657H43.4368V8.22473H50.8909V12.1766H43.4368V16.0432H51.6815V20.3078H38.9756Z" fill="white"/>
</g>
<path d="M55 17.6494C55 17.2397 55.078 16.8592 55.2341 16.508C55.3902 16.1372 55.6049 15.8153 55.878 15.5421C56.1512 15.2689 56.4634 15.0543 56.8146 14.8982C57.1854 14.7421 57.5756 14.6641 57.9854 14.6641C58.3951 14.6641 58.7756 14.7421 59.1268 14.8982C59.4976 15.0543 59.8195 15.2689 60.0927 15.5421C60.3854 15.8153 60.6097 16.1372 60.7659 16.508C60.922 16.8592 61 17.2397 61 17.6494C61 18.0592 60.922 18.4494 60.7659 18.8202C60.6097 19.1714 60.3854 19.4836 60.0927 19.7567C59.8195 20.0299 59.4976 20.2445 59.1268 20.4006C58.7756 20.5763 58.3951 20.6641 57.9854 20.6641C57.5756 20.6641 57.1854 20.5763 56.8146 20.4006C56.4634 20.2445 56.1512 20.0299 55.878 19.7567C55.6049 19.4836 55.3902 19.1714 55.2341 18.8202C55.078 18.4494 55 18.0592 55 17.6494Z" fill="#FDD365"/>
<defs>
<clipPath id="clip0_1401_777">
<rect width="24.7059" height="20.3077" fill="white"/>
</clipPath>
<clipPath id="clip1_1401_777">
<rect width="12.3529" height="18.6154" fill="white" transform="translate(25.6211 3.38477)"/>
</clipPath>
<clipPath id="clip2_1401_777">
<rect width="14.1176" height="20.3077" fill="white" transform="translate(37.9736)"/>
</clipPath>
</defs>
</svg>
