<svg width="121" height="18" viewBox="0 0 121 18" fill="none" xmlns="http://www.w3.org/2000/svg">
<g filter="url(#filter0_d_1401_494)">
<path d="M12.0329 9V2.736L9.38086 9H8.13286L5.50486 2.76V9H4.10086V0.491999H6.02086L8.78086 6.984L11.5049 0.491999H13.4609V9H12.0329ZM16.7032 9V0.491999H21.9592V1.836H18.1432V4.092H21.5992V5.4H18.1432V7.656H21.9592V9H16.7032ZM24.8876 9V0.491999H30.1436V1.836H26.3276V4.092H29.7836V5.4H26.3276V7.656H30.1436V9H24.8876ZM36.49 1.848V9H35.05V1.848H32.29V0.491999H39.262V1.848H36.49ZM48.7716 7.68C49.1396 7.68 49.4876 7.62 49.8156 7.5C50.1436 7.38 50.4276 7.2 50.6676 6.96C50.9156 6.72 51.1116 6.42 51.2556 6.06C51.3996 5.692 51.4716 5.26 51.4716 4.764C51.4716 4.268 51.3996 3.836 51.2556 3.468C51.1196 3.092 50.9276 2.784 50.6796 2.544C50.4396 2.296 50.1556 2.112 49.8276 1.992C49.4996 1.872 49.1516 1.812 48.7836 1.812H47.2596V7.68H48.7716ZM45.8196 9V0.491999H48.8316C49.4076 0.491999 49.9476 0.587999 50.4516 0.779999C50.9556 0.963999 51.3916 1.24 51.7596 1.608C52.1356 1.968 52.4316 2.416 52.6476 2.952C52.8636 3.48 52.9716 4.084 52.9716 4.764C52.9716 5.444 52.8636 6.048 52.6476 6.576C52.4316 7.104 52.1356 7.548 51.7596 7.908C51.3836 8.268 50.9436 8.54 50.4396 8.724C49.9356 8.908 49.3956 9 48.8196 9H45.8196ZM59.8563 9V0.491999H65.1123V1.836H61.2963V4.092H64.7523V5.4H61.2963V7.656H65.1123V9H59.8563ZM71.7841 4.752L74.6041 9H72.8761L70.8961 5.892L68.8921 9H67.2001L70.0441 4.74L67.2241 0.491999H68.9521L70.9321 3.612L72.9241 0.491999H74.6161L71.7841 4.752ZM79.962 4.404C80.418 4.404 80.774 4.288 81.03 4.056C81.294 3.824 81.426 3.504 81.426 3.096C81.426 2.688 81.294 2.364 81.03 2.124C80.774 1.884 80.418 1.764 79.962 1.764H78.462V4.404H79.962ZM78.462 5.676V9H77.022V0.491999H80.178C80.586 0.491999 80.954 0.559999 81.282 0.696C81.618 0.823999 81.906 1.004 82.146 1.236C82.386 1.46 82.57 1.732 82.698 2.052C82.826 2.372 82.89 2.716 82.89 3.084C82.89 3.46 82.826 3.808 82.698 4.128C82.57 4.44 82.386 4.712 82.146 4.944C81.906 5.176 81.618 5.356 81.282 5.484C80.954 5.612 80.586 5.676 80.178 5.676H78.462ZM85.4173 9V0.491999H90.6733V1.836H86.8573V4.092H90.3133V5.4H86.8573V7.656H90.6733V9H85.4173ZM96.1096 5.64H95.0536V9H93.6016V0.491999H96.8656C97.2736 0.491999 97.6416 0.559999 97.9696 0.696C98.3056 0.823999 98.5856 1.008 98.8096 1.248C99.0416 1.48 99.2176 1.752 99.3376 2.064C99.4656 2.376 99.5296 2.712 99.5296 3.072C99.5296 3.68 99.3576 4.2 99.0136 4.632C98.6776 5.064 98.2096 5.352 97.6096 5.496L99.5296 9H97.8976L96.1096 5.64ZM96.6016 4.368C97.0496 4.368 97.4056 4.252 97.6696 4.02C97.9336 3.78 98.0656 3.464 98.0656 3.072C98.0656 2.672 97.9336 2.356 97.6696 2.124C97.4056 1.884 97.0496 1.764 96.6016 1.764H95.0536V4.368H96.6016ZM105.602 1.848V9H104.162V1.848H101.402V0.491999H108.374V1.848H105.602ZM115.052 2.892C115.028 2.764 114.98 2.624 114.908 2.472C114.844 2.312 114.744 2.168 114.608 2.04C114.48 1.912 114.316 1.804 114.116 1.716C113.916 1.628 113.672 1.584 113.384 1.584C113.168 1.584 112.968 1.62 112.784 1.692C112.608 1.756 112.456 1.844 112.328 1.956C112.2 2.068 112.1 2.2 112.028 2.352C111.956 2.496 111.92 2.648 111.92 2.808C111.92 3.08 112 3.312 112.16 3.504C112.328 3.696 112.58 3.828 112.916 3.9L114.14 4.152C114.892 4.304 115.464 4.6 115.856 5.04C116.248 5.48 116.444 6 116.444 6.6C116.444 6.928 116.376 7.248 116.24 7.56C116.112 7.872 115.92 8.148 115.664 8.388C115.408 8.628 115.092 8.82 114.716 8.964C114.348 9.108 113.92 9.18 113.432 9.18C112.888 9.18 112.416 9.104 112.016 8.952C111.624 8.792 111.292 8.588 111.02 8.34C110.756 8.084 110.552 7.8 110.408 7.488C110.264 7.176 110.176 6.868 110.144 6.564L111.488 6.18C111.512 6.404 111.568 6.62 111.656 6.828C111.744 7.028 111.868 7.208 112.028 7.368C112.196 7.52 112.396 7.644 112.628 7.74C112.86 7.836 113.128 7.884 113.432 7.884C113.944 7.884 114.328 7.772 114.584 7.548C114.848 7.324 114.98 7.044 114.98 6.708C114.98 6.428 114.88 6.188 114.68 5.988C114.488 5.78 114.208 5.636 113.84 5.556L112.64 5.304C111.992 5.168 111.468 4.896 111.068 4.488C110.676 4.08 110.48 3.556 110.48 2.916C110.48 2.556 110.556 2.22 110.708 1.908C110.86 1.588 111.068 1.312 111.332 1.08C111.596 0.839999 111.9 0.651999 112.244 0.516C112.596 0.38 112.972 0.312 113.372 0.312C113.876 0.312 114.304 0.38 114.656 0.516C115.008 0.651999 115.3 0.827999 115.532 1.044C115.772 1.252 115.956 1.484 116.084 1.74C116.212 1.996 116.3 2.244 116.348 2.484L115.052 2.892Z" fill="white"/>
</g>
<defs>
<filter id="filter0_d_1401_494" x="0.100586" y="0.312012" width="120.343" height="16.8679" filterUnits="userSpaceOnUse" color-interpolation-filters="sRGB">
<feFlood flood-opacity="0" result="BackgroundImageFix"/>
<feColorMatrix in="SourceAlpha" type="matrix" values="0 0 0 0 0 0 0 0 0 0 0 0 0 0 0 0 0 0 127 0" result="hardAlpha"/>
<feOffset dy="4"/>
<feGaussianBlur stdDeviation="2"/>
<feComposite in2="hardAlpha" operator="out"/>
<feColorMatrix type="matrix" values="0 0 0 0 0 0 0 0 0 0 0 0 0 0 0 0 0 0 0.25 0"/>
<feBlend mode="normal" in2="BackgroundImageFix" result="effect1_dropShadow_1401_494"/>
<feBlend mode="normal" in="SourceGraphic" in2="effect1_dropShadow_1401_494" result="shape"/>
</filter>
</defs>
</svg>
