<svg width="117" height="117" viewBox="0 0 117 117" fill="none" xmlns="http://www.w3.org/2000/svg">
<path opacity="0.2" d="M107.25 58.5235C107.25 85.3795 85.369 107.25 58.5 107.25C31.631 107.25 9.75 85.3795 9.75 58.5235C9.75 31.6205 31.631 9.75 58.5 9.75C85.369 9.75 107.25 31.6205 107.25 58.5235Z" fill="white"/>
<path d="M78 58.5237C78 59.7558 77.6122 60.9926 76.8366 61.983C76.6912 62.1773 76.0126 62.9781 75.4794 63.4994L75.1886 63.7837C71.1168 68.1007 60.986 74.5928 55.8478 76.6731C55.8478 76.7205 52.794 77.9574 51.3398 78H51.146C48.9162 78 46.8319 76.7727 45.7654 74.7824C45.1838 73.6877 44.6506 70.5128 44.6021 70.4701C44.1658 67.6221 43.875 63.2625 43.875 58.4763C43.875 53.458 44.1658 48.904 44.699 46.1081C44.699 46.0608 45.2322 43.5018 45.5716 42.6488C46.1048 41.4215 47.0742 40.3742 48.286 39.7108C49.2555 39.2417 50.2734 39 51.3398 39C52.4547 39.0521 54.5391 39.7582 55.3631 40.0899C60.7921 42.175 71.1653 48.9988 75.1401 53.1689C75.8187 53.8323 76.5458 54.6426 76.7397 54.8275C77.5637 55.87 78 57.1495 78 58.5237Z" fill="white"/>
</svg>
