<svg width="40" height="40" viewBox="0 0 40 40" fill="none" xmlns="http://www.w3.org/2000/svg">
<circle opacity="0.2" cx="20" cy="20" r="20" fill="#CACACA"/>
<path d="M25.9189 22.32C25.6599 22.571 25.5409 22.934 25.5999 23.29L26.4889 28.21C26.5639 28.627 26.3879 29.049 26.0389 29.29C25.6969 29.54 25.2419 29.57 24.8689 29.37L20.4399 27.06C20.2859 26.978 20.1149 26.934 19.9399 26.929H19.6689C19.5749 26.943 19.4829 26.973 19.3989 27.019L14.9689 29.34C14.7499 29.45 14.5019 29.489 14.2589 29.45C13.6669 29.338 13.2719 28.774 13.3689 28.179L14.2589 23.259C14.3179 22.9 14.1989 22.535 13.9399 22.28L10.3289 18.78C10.0269 18.487 9.92188 18.047 10.0599 17.65C10.1939 17.254 10.5359 16.965 10.9489 16.9L15.9189 16.179C16.2969 16.14 16.6289 15.91 16.7989 15.57L18.9889 11.08C19.0409 10.98 19.1079 10.888 19.1889 10.81L19.2789 10.74C19.3259 10.688 19.3799 10.645 19.4399 10.61L19.5489 10.57L19.7189 10.5H20.1399C20.5159 10.539 20.8469 10.764 21.0199 11.1L23.2389 15.57C23.3989 15.897 23.7099 16.124 24.0689 16.179L29.0389 16.9C29.4589 16.96 29.8099 17.25 29.9489 17.65C30.0799 18.051 29.9669 18.491 29.6589 18.78L25.9189 22.32Z" fill="#CACACA"/>
</svg>
