<svg width="40" height="40" viewBox="0 0 40 40" fill="none" xmlns="http://www.w3.org/2000/svg">
<circle opacity="0.2" cx="20" cy="20" r="20" fill="#CACACA"/>
<path fill-rule="evenodd" clip-rule="evenodd" d="M25.1801 12.41C25.1801 11.08 26.2601 10 27.5901 10C28.9201 10 30.0001 11.08 30.0001 12.41C30.0001 13.74 28.9201 14.82 27.5901 14.82C26.2601 14.82 25.1801 13.74 25.1801 12.41ZM21.33 22.7593L24.22 19.0303L24.18 19.0503C24.34 18.8303 24.37 18.5503 24.26 18.3003C24.151 18.0503 23.91 17.8803 23.651 17.8603C23.38 17.8303 23.111 17.9503 22.95 18.1703L20.531 21.3003L17.76 19.1203C17.59 18.9903 17.39 18.9393 17.19 18.9603C16.991 18.9903 16.811 19.0993 16.69 19.2593L13.731 23.1103L13.67 23.2003C13.5 23.5193 13.58 23.9293 13.88 24.1503C14.02 24.2403 14.17 24.3003 14.34 24.3003C14.571 24.3103 14.79 24.1893 14.93 24.0003L17.44 20.7693L20.29 22.9103L20.38 22.9693C20.7 23.1393 21.1 23.0603 21.33 22.7593ZM23.45 11.7803C23.41 12.0303 23.39 12.2803 23.39 12.5303C23.39 14.7803 25.21 16.5993 27.45 16.5993C27.7 16.5993 27.94 16.5703 28.19 16.5303V24.5993C28.19 27.9903 26.19 30.0003 22.79 30.0003H15.401C12 30.0003 10 27.9903 10 24.5993V17.2003C10 13.8003 12 11.7803 15.401 11.7803H23.45Z" fill="#CACACA"/>
</svg>
