<svg width="40" height="40" viewBox="0 0 40 40" fill="none" xmlns="http://www.w3.org/2000/svg">
<circle opacity="0.2" cx="20" cy="20" r="20" fill="#CACACA"/>
<path fill-rule="evenodd" clip-rule="evenodd" d="M21.9455 20.89C22.2327 21.18 22.698 21.18 22.9851 20.89C23.2822 20.6 23.2822 20.13 22.995 19.84L20.1535 16.96C20.0842 16.89 20.005 16.84 19.9158 16.8C19.8267 16.76 19.7376 16.74 19.6386 16.74C19.5396 16.74 19.4406 16.76 19.3515 16.8C19.2624 16.84 19.1832 16.89 19.1139 16.96L16.2822 19.84C15.995 20.13 15.995 20.6 16.2822 20.89C16.5693 21.18 17.0347 21.18 17.3218 20.89L18.896 19.29V24.12C18.896 24.53 19.2228 24.86 19.6386 24.86C20.0446 24.86 20.3713 24.53 20.3713 24.12V19.29L21.9455 20.89ZM27.3282 17.0256C27.5609 17.0229 27.8143 17.02 28.0446 17.02C28.2921 17.02 28.5 17.22 28.5 17.47V25.51C28.5 27.99 26.5 30 24.0446 30H16.1733C13.5891 30 11.5 27.89 11.5 25.29V14.51C11.5 12.03 13.4901 10 15.9653 10H21.2525C21.5 10 21.7079 10.21 21.7079 10.46V13.68C21.7079 15.51 23.1931 17.01 25.0149 17.02C25.4313 17.02 25.801 17.0231 26.1258 17.0259C26.3801 17.0281 26.6069 17.03 26.8069 17.03C26.9479 17.03 27.1306 17.0279 27.3282 17.0256ZM27.6047 15.566C26.7908 15.569 25.8324 15.566 25.1423 15.559C24.0472 15.559 23.1452 14.648 23.1452 13.542V10.906C23.1452 10.475 23.6621 10.261 23.9581 10.572C24.7204 11.3718 25.8872 12.5974 26.8736 13.6335C27.2735 14.0534 27.6437 14.4423 27.9452 14.759C28.2334 15.062 28.0215 15.565 27.6047 15.566Z" fill="#CACACA"/>
</svg>
